<!-- Generator: Adobe Illustrator 18.1.1, SVG Export Plug-In  -->
<svg version="1.1"
	 xmlns="http://www.w3.org/2000/svg" xmlns:xlink="http://www.w3.org/1999/xlink" xmlns:a="http://ns.adobe.com/AdobeSVGViewerExtensions/3.0/"
	 x="0px" y="0px" width="1198px" height="1198.8px" viewBox="0 0 1198 1198.8" enable-background="new 0 0 1198 1198.8"
	 xml:space="preserve">
<defs>
</defs>
<g>
	<path fill="#F588AE" d="M597.9,600.9L1044,999c-219.9,246.4-597.9,267.8-844.2,47.9C-46.6,827.1-68,449.1,151.8,202.7
		C327.7,5.7,596.9-52.8,838.7,53.6L597.9,600.9z"/>
	<path fill="#FFD8E3" d="M597.9,600.9l469.6-370.2c179.9,228.2,170,551.5-23.5,768.3L597.9,600.9z"/>
	<path fill="#FCB8CD" d="M597.9,600.9L838.7,53.6c94.6,41.6,164.8,95.9,228.7,177.1L597.9,600.9z"/>
	<path fill="#EB5A95" d="M597.9,600.9l469.6-370.2c1.2,1.6-1.2-1.6,0,0L597.9,600.9z"/>
	<line fill="none" stroke="#EB5A95" x1="597.9" y1="601" x2="1067.5" y2="230.7"/>
</g>
</svg>
